<svg width="1152" height="1260" viewBox="0 0 1152 1260" fill="none" xmlns="http://www.w3.org/2000/svg">
<rect width="1152" height="1260" fill="white"/>
<path fill-rule="evenodd" clip-rule="evenodd" d="M0 938.729L38.3933 949.414C76.7866 960.1 153.573 981.657 230.36 986.906C307.146 992.343 383.933 981.657 460.72 970.972C537.506 960.1 614.494 949.414 691.28 933.293C768.067 917.171 844.854 895.613 921.64 879.492C998.427 863.558 1075.21 852.685 1113.61 847.436L1152 842V1259.5H1113.61C1075.21 1259.5 998.427 1259.5 921.64 1259.5C844.854 1259.5 768.067 1259.5 691.28 1259.5C614.494 1259.5 537.506 1259.5 460.72 1259.5C383.933 1259.5 307.146 1259.5 230.36 1259.5C153.573 1259.5 76.7866 1259.5 38.3933 1259.5H0L0 938.729Z" fill="url(#paint0_radial)"/>
<path d="M0 93.2995V0H1152V159.313C1114.5 142 1106 124.778 961.097 105.622C763.5 79.5 581.5 135.809 396.5 155C276 167.5 121.5 143.5 0 93.2995Z" fill="url(#paint1_radial)"/>
<defs>
<radialGradient id="paint0_radial" cx="0" cy="0" r="1" gradientUnits="userSpaceOnUse" gradientTransform="translate(1536 746) rotate(164.167) scale(1117.91 3084.63)">
<stop stop-color="#B53CFF" stop-opacity="0.7"/>
<stop offset="1" stop-color="#4F95FF"/>
</radialGradient>
<radialGradient id="paint1_radial" cx="0" cy="0" r="1" gradientUnits="userSpaceOnUse" gradientTransform="translate(8.31537e-06 80) rotate(0.271659) scale(1160.01 8388.09)">
<stop stop-color="#B53CFF"/>
<stop offset="1" stop-color="#00A1FB" stop-opacity="0.7"/>
</radialGradient>
</defs>
</svg>
